<?xml version="1.0" encoding="UTF-8"?>
<svg version="1.1" xmlns="http://www.w3.org/2000/svg" width="260" height="305">
<path d="M0 0 C1.70866635 -0.00708024 3.41732643 -0.01583397 5.12597656 -0.02610779 C9.70790949 -0.04835289 14.2894931 -0.04572472 18.87145901 -0.03678632 C22.70921089 -0.03163644 26.54689941 -0.03899954 30.38464475 -0.04625839 C39.43161781 -0.06317148 48.47842177 -0.05977105 57.52539062 -0.04296875 C66.8490131 -0.02597692 76.17216977 -0.04199781 85.49574161 -0.07419163 C93.52585514 -0.10086513 101.55582345 -0.10817195 109.58597684 -0.09967655 C114.37196563 -0.0947505 119.15767298 -0.09694859 123.9436264 -0.11746407 C128.43210678 -0.13579139 132.91991183 -0.12989919 137.40835571 -0.10526466 C139.05430005 -0.10025123 140.7002957 -0.1037604 142.34619904 -0.11641312 C144.59296768 -0.13232062 146.83750453 -0.11742017 149.08416748 -0.09474182 C150.96883791 -0.09386236 150.96883791 -0.09386236 152.89158249 -0.09296513 C156.17675781 0.53344727 156.17675781 0.53344727 159.08441734 2.33168697 C162.2730203 7.21098003 161.8358988 11.67954511 161.74679565 17.38980103 C161.74768979 18.6047715 161.74858393 19.81974198 161.74950516 21.07152975 C161.74691266 24.44130585 161.72180972 27.80955655 161.68720198 31.17906618 C161.65533682 34.81364655 161.65243783 38.44826383 161.64598083 42.08296204 C161.62880359 49.20158417 161.58504892 56.31980855 161.53262715 63.43824865 C161.47274225 71.72412751 161.44036444 80.01004451 161.40947558 88.29607384 C161.35355666 103.0768309 161.27450887 117.85737205 161.18164062 132.63793945 C161.09151054 146.98847989 161.01467937 161.33900077 160.95410156 175.68969727 C160.95036635 176.57382513 160.94663114 177.45795298 160.94278274 178.3688726 C160.92780344 181.92241067 160.91286201 185.47594891 160.89798414 189.02948741 C160.83352977 204.34448178 160.75813035 219.65942497 160.68126851 234.97436136 C160.66890018 237.45656762 160.65678878 239.93877502 160.64473867 242.42098284 C160.60232805 251.10833616 160.55662098 259.79565319 160.50165538 268.48293711 C160.47893229 272.07615875 160.45768652 275.66937133 160.44062996 279.26262474 C160.4220655 283.15214505 160.39579308 287.04159054 160.36862183 290.93106079 C160.36423312 292.07452331 160.35984442 293.21798583 160.35532272 294.39609873 C160.34248581 295.95228594 160.34248581 295.95228594 160.32938957 297.53991127 C160.32133696 298.88746024 160.32133696 298.88746024 160.31312168 300.26223242 C160.17675781 302.53344727 160.17675781 302.53344727 159.17675781 305.53344727 C151.50139154 305.55657547 143.82602886 305.5743648 136.15063572 305.58525944 C132.5869836 305.59048722 129.02335524 305.59758296 125.4597168 305.60888672 C121.36669684 305.62178902 117.27370202 305.62667633 113.18066406 305.63110352 C111.25257652 305.63884544 111.25257652 305.63884544 109.28553772 305.64674377 C107.51381447 305.64685707 107.51381447 305.64685707 105.70629883 305.64697266 C104.13743675 305.65030357 104.13743675 305.65030357 102.53688049 305.65370178 C100.17675781 305.53344727 100.17675781 305.53344727 99.17675781 304.53344727 C99.08042873 303.19381625 99.0530381 301.84914654 99.05370998 300.50605679 C99.05171894 299.63321684 99.04972789 298.7603769 99.0476765 297.86108726 C99.05058935 296.89126303 99.05350219 295.9214388 99.0565033 294.92222595 C99.05522166 293.38961218 99.05522166 293.38961218 99.05391413 291.82603651 C99.05225626 288.37424134 99.05778571 284.92249388 99.06323242 281.47070312 C99.06351425 279.00753277 99.06335664 276.54436233 99.06278992 274.08119202 C99.0625616 268.7637005 99.06541301 263.44622408 99.07102776 258.1287365 C99.07914056 250.44045932 99.08175775 242.75218809 99.08301575 235.06390709 C99.08520661 222.5914295 99.09186763 210.11895843 99.10131836 197.64648438 C99.11049158 185.5276696 99.11757286 173.4088566 99.12182617 161.29003906 C99.1220889 160.54355289 99.12235162 159.79706672 99.1226223 159.02795976 C99.1239273 155.28321259 99.12519102 151.53846541 99.12643421 147.79371822 C99.1368079 116.70695649 99.15450127 85.62020287 99.17675781 54.53344727 C87.55363864 54.48689864 75.93054201 54.45146436 64.30734825 54.42982292 C58.90896666 54.41943083 53.51064932 54.40535615 48.11230469 54.38256836 C42.89273074 54.36067564 37.6732182 54.34884433 32.45360184 54.34369278 C30.47232727 54.34002629 28.49105567 54.3328675 26.50980759 54.32198715 C-0.93490642 53.87763946 -0.93490642 53.87763946 -24.59667969 66.17797852 C-37.59593286 79.64344963 -34.97515017 99.748857 -35.01269531 117.0871582 C-35.02065198 119.13668991 -35.02904102 121.18621997 -35.03782654 123.23574829 C-35.05577821 127.62320218 -35.0708299 132.01065271 -35.08360291 136.39812469 C-35.1039248 143.33048329 -35.13155725 150.26280121 -35.16027832 157.19512939 C-35.22526393 173.1440668 -35.28100252 189.09303386 -35.33626556 205.04200745 C-35.38709267 219.69776215 -35.43987367 234.35350175 -35.50079107 249.00921845 C-35.52918381 255.90748741 -35.55276131 262.80575129 -35.57271576 269.70404959 C-35.58605611 273.97826536 -35.60346877 278.25245729 -35.62202644 282.52665329 C-35.62981185 284.51613389 -35.63586846 286.50562208 -35.64011955 288.49511337 C-35.64612412 291.19817894 -35.65815063 293.90115065 -35.67175293 296.60418701 C-35.67204892 297.40172386 -35.6723449 298.19926071 -35.67264986 299.02096534 C-35.70914707 304.41935215 -35.70914707 304.41935215 -36.82324219 305.53344727 C-38.53643165 305.6322632 -40.25369022 305.66143696 -41.96972656 305.6628418 C-43.61648376 305.66757004 -43.61648376 305.66757004 -45.29650879 305.6723938 C-46.49126831 305.67036957 -47.68602783 305.66834534 -48.91699219 305.66625977 C-50.13398804 305.66721649 -51.35098389 305.66817322 -52.6048584 305.66915894 C-55.18400118 305.66984099 -57.76314565 305.66798498 -60.34228516 305.66381836 C-64.30602854 305.65847049 -68.2696586 305.66376256 -72.23339844 305.67016602 C-74.73209661 305.66950524 -77.2307947 305.66822409 -79.72949219 305.66625977 C-81.52163147 305.66929611 -81.52163147 305.66929611 -83.34997559 305.6723938 C-84.44781372 305.66924164 -85.54565186 305.66608948 -86.67675781 305.6628418 C-88.13450623 305.66164841 -88.13450623 305.66164841 -89.6217041 305.66043091 C-91.82324219 305.53344727 -91.82324219 305.53344727 -92.82324219 304.53344727 C-92.92551757 301.88353655 -92.96210418 299.25954103 -92.95695496 296.60900879 C-92.95922051 295.76824751 -92.96148607 294.92748624 -92.96382028 294.06124735 C-92.97019153 291.2205868 -92.96932885 288.37997358 -92.96850586 285.53930664 C-92.97149592 283.51078224 -92.97489809 281.48225842 -92.97868347 279.45373535 C-92.98755589 273.91923159 -92.98986329 268.38474327 -92.99049926 262.85023308 C-92.99120939 259.38475763 -92.99334328 255.91928612 -92.99599648 252.45381165 C-93.00526944 240.33907828 -93.00933004 228.22435594 -93.00854492 216.10961914 C-93.00794766 204.86464239 -93.01842491 193.61971417 -93.03428859 182.37474966 C-93.04744811 172.69713414 -93.05272513 163.01953427 -93.05208951 153.34190989 C-93.05183644 147.57368172 -93.05457937 141.80549639 -93.06526756 136.03727722 C-93.21556052 48.82352787 -93.21556052 48.82352787 -70.51464844 24.01000977 C-51.85201494 6.0522048 -25.13458044 -0.11166771 0 0 Z " fill="#143F6F" transform="translate(92.8232421875,-0.533447265625)"/>
<path d="M0 0 C1.70866635 -0.00708024 3.41732643 -0.01583397 5.12597656 -0.02610779 C9.70790949 -0.04835289 14.2894931 -0.04572472 18.87145901 -0.03678632 C22.70921089 -0.03163644 26.54689941 -0.03899954 30.38464475 -0.04625839 C39.43161781 -0.06317148 48.47842177 -0.05977105 57.52539062 -0.04296875 C66.8490131 -0.02597692 76.17216977 -0.04199781 85.49574161 -0.07419163 C93.52585514 -0.10086513 101.55582345 -0.10817195 109.58597684 -0.09967655 C114.37196563 -0.0947505 119.15767298 -0.09694859 123.9436264 -0.11746407 C128.43210678 -0.13579139 132.91991183 -0.12989919 137.40835571 -0.10526466 C139.05430005 -0.10025123 140.7002957 -0.1037604 142.34619904 -0.11641312 C144.59296768 -0.13232062 146.83750453 -0.11742017 149.08416748 -0.09474182 C150.96883791 -0.09386236 150.96883791 -0.09386236 152.89158249 -0.09296513 C156.17675781 0.53344727 156.17675781 0.53344727 159.08441734 2.33168697 C162.2730203 7.21098003 161.8358988 11.67954511 161.74679565 17.38980103 C161.74768979 18.6047715 161.74858393 19.81974198 161.74950516 21.07152975 C161.74691266 24.44130585 161.72180972 27.80955655 161.68720198 31.17906618 C161.65533682 34.81364655 161.65243783 38.44826383 161.64598083 42.08296204 C161.62880359 49.20158417 161.58504892 56.31980855 161.53262715 63.43824865 C161.47274225 71.72412751 161.44036444 80.01004451 161.40947558 88.29607384 C161.35355666 103.0768309 161.27450887 117.85737205 161.18164062 132.63793945 C161.09151054 146.98847989 161.01467937 161.33900077 160.95410156 175.68969727 C160.95036635 176.57382513 160.94663114 177.45795298 160.94278274 178.3688726 C160.92780344 181.92241067 160.91286201 185.47594891 160.89798414 189.02948741 C160.83352977 204.34448178 160.75813035 219.65942497 160.68126851 234.97436136 C160.66890018 237.45656762 160.65678878 239.93877502 160.64473867 242.42098284 C160.60232805 251.10833616 160.55662098 259.79565319 160.50165538 268.48293711 C160.47893229 272.07615875 160.45768652 275.66937133 160.44062996 279.26262474 C160.4220655 283.15214505 160.39579308 287.04159054 160.36862183 290.93106079 C160.36423312 292.07452331 160.35984442 293.21798583 160.35532272 294.39609873 C160.34248581 295.95228594 160.34248581 295.95228594 160.32938957 297.53991127 C160.32133696 298.88746024 160.32133696 298.88746024 160.31312168 300.26223242 C160.17675781 302.53344727 160.17675781 302.53344727 159.17675781 305.53344727 C151.50139154 305.55657547 143.82602886 305.5743648 136.15063572 305.58525944 C132.5869836 305.59048722 129.02335524 305.59758296 125.4597168 305.60888672 C121.36669684 305.62178902 117.27370202 305.62667633 113.18066406 305.63110352 C111.25257652 305.63884544 111.25257652 305.63884544 109.28553772 305.64674377 C107.51381447 305.64685707 107.51381447 305.64685707 105.70629883 305.64697266 C104.13743675 305.65030357 104.13743675 305.65030357 102.53688049 305.65370178 C100.17675781 305.53344727 100.17675781 305.53344727 99.17675781 304.53344727 C99.08042873 303.19381625 99.0530381 301.84914654 99.05370998 300.50605679 C99.05171894 299.63321684 99.04972789 298.7603769 99.0476765 297.86108726 C99.05058935 296.89126303 99.05350219 295.9214388 99.0565033 294.92222595 C99.05522166 293.38961218 99.05522166 293.38961218 99.05391413 291.82603651 C99.05225626 288.37424134 99.05778571 284.92249388 99.06323242 281.47070312 C99.06351425 279.00753277 99.06335664 276.54436233 99.06278992 274.08119202 C99.0625616 268.7637005 99.06541301 263.44622408 99.07102776 258.1287365 C99.07914056 250.44045932 99.08175775 242.75218809 99.08301575 235.06390709 C99.08520661 222.5914295 99.09186763 210.11895843 99.10131836 197.64648438 C99.11049158 185.5276696 99.11757286 173.4088566 99.12182617 161.29003906 C99.1220889 160.54355289 99.12235162 159.79706672 99.1226223 159.02795976 C99.1239273 155.28321259 99.12519102 151.53846541 99.12643421 147.79371822 C99.1368079 116.70695649 99.15450127 85.62020287 99.17675781 54.53344727 C87.55363864 54.48689864 75.93054201 54.45146436 64.30734825 54.42982292 C58.90896666 54.41943083 53.51064932 54.40535615 48.11230469 54.38256836 C42.89273074 54.36067564 37.6732182 54.34884433 32.45360184 54.34369278 C30.47232727 54.34002629 28.49105567 54.3328675 26.50980759 54.32198715 C-0.93490642 53.87763946 -0.93490642 53.87763946 -24.59667969 66.17797852 C-37.59593286 79.64344963 -34.97515017 99.748857 -35.01269531 117.0871582 C-35.02065198 119.13668991 -35.02904102 121.18621997 -35.03782654 123.23574829 C-35.05577821 127.62320218 -35.0708299 132.01065271 -35.08360291 136.39812469 C-35.1039248 143.33048329 -35.13155725 150.26280121 -35.16027832 157.19512939 C-35.22526393 173.1440668 -35.28100252 189.09303386 -35.33626556 205.04200745 C-35.38709267 219.69776215 -35.43987367 234.35350175 -35.50079107 249.00921845 C-35.52918381 255.90748741 -35.55276131 262.80575129 -35.57271576 269.70404959 C-35.58605611 273.97826536 -35.60346877 278.25245729 -35.62202644 282.52665329 C-35.62981185 284.51613389 -35.63586846 286.50562208 -35.64011955 288.49511337 C-35.64612412 291.19817894 -35.65815063 293.90115065 -35.67175293 296.60418701 C-35.67204892 297.40172386 -35.6723449 298.19926071 -35.67264986 299.02096534 C-35.70914707 304.41935215 -35.70914707 304.41935215 -36.82324219 305.53344727 C-38.53643165 305.6322632 -40.25369022 305.66143696 -41.96972656 305.6628418 C-43.61648376 305.66757004 -43.61648376 305.66757004 -45.29650879 305.6723938 C-46.49126831 305.67036957 -47.68602783 305.66834534 -48.91699219 305.66625977 C-50.13398804 305.66721649 -51.35098389 305.66817322 -52.6048584 305.66915894 C-55.18400118 305.66984099 -57.76314565 305.66798498 -60.34228516 305.66381836 C-64.30602854 305.65847049 -68.2696586 305.66376256 -72.23339844 305.67016602 C-74.73209661 305.66950524 -77.2307947 305.66822409 -79.72949219 305.66625977 C-81.52163147 305.66929611 -81.52163147 305.66929611 -83.34997559 305.6723938 C-84.44781372 305.66924164 -85.54565186 305.66608948 -86.67675781 305.6628418 C-88.13450623 305.66164841 -88.13450623 305.66164841 -89.6217041 305.66043091 C-91.82324219 305.53344727 -91.82324219 305.53344727 -92.82324219 304.53344727 C-92.92551757 301.88353655 -92.96210418 299.25954103 -92.95695496 296.60900879 C-92.95922051 295.76824751 -92.96148607 294.92748624 -92.96382028 294.06124735 C-92.97019153 291.2205868 -92.96932885 288.37997358 -92.96850586 285.53930664 C-92.97149592 283.51078224 -92.97489809 281.48225842 -92.97868347 279.45373535 C-92.98755589 273.91923159 -92.98986329 268.38474327 -92.99049926 262.85023308 C-92.99120939 259.38475763 -92.99334328 255.91928612 -92.99599648 252.45381165 C-93.00526944 240.33907828 -93.00933004 228.22435594 -93.00854492 216.10961914 C-93.00794766 204.86464239 -93.01842491 193.61971417 -93.03428859 182.37474966 C-93.04744811 172.69713414 -93.05272513 163.01953427 -93.05208951 153.34190989 C-93.05183644 147.57368172 -93.05457937 141.80549639 -93.06526756 136.03727722 C-93.21556052 48.82352787 -93.21556052 48.82352787 -70.51464844 24.01000977 C-51.85201494 6.0522048 -25.13458044 -0.11166771 0 0 Z M-69.45996094 30.64282227 C-85.27098187 52.56985415 -85.98491141 77.70675706 -85.93676758 103.70214844 C-85.93648517 105.84167479 -85.93664448 107.98120124 -85.93721008 110.12072754 C-85.93749597 115.90295816 -85.93163295 121.68516786 -85.92463613 127.46739364 C-85.91836787 133.51987205 -85.91779605 139.57235099 -85.91661072 145.62483215 C-85.91350762 157.07445265 -85.90530803 168.52406356 -85.89526123 179.97367984 C-85.88406833 193.01358882 -85.87858164 206.05349826 -85.87356579 219.09341085 C-85.86312455 245.90676286 -85.84479179 272.72010172 -85.82324219 299.53344727 C-71.30324219 299.53344727 -56.78324219 299.53344727 -41.82324219 299.53344727 C-41.80136841 289.81278809 -41.80136841 289.81278809 -41.77905273 279.89575195 C-41.72871902 258.48594812 -41.66227578 237.07621669 -41.58752728 215.66648483 C-41.54260013 202.68562381 -41.50317829 189.70479003 -41.47680664 176.72387695 C-41.45380168 165.40707546 -41.42037561 154.09036042 -41.37454063 142.77362752 C-41.35064225 136.78391448 -41.33189124 130.79428688 -41.32562828 124.80452728 C-41.31956219 119.16073542 -41.29950706 113.51716207 -41.26896667 107.87345123 C-41.2602109 105.8079836 -41.25645874 103.74248738 -41.25823402 101.67700195 C-41.26745446 85.99197655 -40.79063519 70.40984509 -29.63183594 58.19360352 C-20.2204874 49.55467667 -8.10988305 46.6555137 4.2421875 45.44995117 C5.1107777 45.3648208 5.9793679 45.27969044 6.87427902 45.19198036 C16.99312099 44.2731819 27.10124142 44.17979805 37.25488281 44.11938477 C39.28896821 44.10061159 41.32304632 44.08103397 43.3571167 44.06069946 C48.6372848 44.01002029 53.91747798 43.97005697 59.19775391 43.93255615 C64.61529409 43.89210688 70.03273582 43.84120432 75.45019531 43.79125977 C86.02564635 43.69526402 96.60115382 43.61062251 107.17675781 43.53344727 C107.13180931 45.40774162 107.13180931 45.40774162 107.08595276 47.31990051 C106.27940688 82.08294231 106.07703083 116.83636113 106.07910156 151.60766602 C106.07916592 152.68836569 106.07923028 153.76906537 106.07929659 154.88251352 C106.08094083 168.24457443 106.09127743 181.60662307 106.1047312 194.96867669 C106.11614212 206.51263247 106.12146511 218.05658903 106.12643421 229.6005491 C106.13674029 253.24485624 106.15499299 276.88914771 106.17675781 300.53344727 C122.01675781 300.53344727 137.85675781 300.53344727 154.17675781 300.53344727 C154.17675781 202.85344727 154.17675781 105.17344727 154.17675781 4.53344727 C111.69957031 4.37875977 111.69957031 4.37875977 68.36425781 4.22094727 C59.45321045 4.17542725 50.54216309 4.12990723 41.36108398 4.08300781 C33.30881981 4.06627614 33.30881981 4.06627614 25.25654602 4.05622864 C21.69555284 4.05160757 18.13493988 4.03302145 14.5740509 4.00556946 C10.00833208 3.97084633 5.44315281 3.96106874 0.87731421 3.96808589 C-0.78358383 3.96662225 -2.44450405 3.95696254 -4.10528719 3.93737161 C-27.97637173 3.66924667 -53.98978251 11.29420474 -69.45996094 30.64282227 Z " fill="#BDBFC4" transform="translate(92.8232421875,-0.533447265625)"/>
<path d="M0 0 C1.70866635 -0.00708024 3.41732643 -0.01583397 5.12597656 -0.02610779 C9.70790949 -0.04835289 14.2894931 -0.04572472 18.87145901 -0.03678632 C22.70921089 -0.03163644 26.54689941 -0.03899954 30.38464475 -0.04625839 C39.43161781 -0.06317148 48.47842177 -0.05977105 57.52539062 -0.04296875 C66.8490131 -0.02597692 76.17216977 -0.04199781 85.49574161 -0.07419163 C93.52585514 -0.10086513 101.55582345 -0.10817195 109.58597684 -0.09967655 C114.37196563 -0.0947505 119.15767298 -0.09694859 123.9436264 -0.11746407 C128.43210678 -0.13579139 132.91991183 -0.12989919 137.40835571 -0.10526466 C139.05430005 -0.10025123 140.7002957 -0.1037604 142.34619904 -0.11641312 C144.59296768 -0.13232062 146.83750453 -0.11742017 149.08416748 -0.09474182 C150.96883791 -0.09386236 150.96883791 -0.09386236 152.89158249 -0.09296513 C156.17675781 0.53344727 156.17675781 0.53344727 159.08441734 2.33168697 C162.2730203 7.21098003 161.8358988 11.67954511 161.74679565 17.38980103 C161.74768979 18.6047715 161.74858393 19.81974198 161.74950516 21.07152975 C161.74691266 24.44130585 161.72180972 27.80955655 161.68720198 31.17906618 C161.65533682 34.81364655 161.65243783 38.44826383 161.64598083 42.08296204 C161.62880359 49.20158417 161.58504892 56.31980855 161.53262715 63.43824865 C161.47274225 71.72412751 161.44036444 80.01004451 161.40947558 88.29607384 C161.35355666 103.0768309 161.27450887 117.85737205 161.18164062 132.63793945 C161.09151054 146.98847989 161.01467937 161.33900077 160.95410156 175.68969727 C160.95036635 176.57382513 160.94663114 177.45795298 160.94278274 178.3688726 C160.92780344 181.92241067 160.91286201 185.47594891 160.89798414 189.02948741 C160.83352977 204.34448178 160.75813035 219.65942497 160.68126851 234.97436136 C160.66890018 237.45656762 160.65678878 239.93877502 160.64473867 242.42098284 C160.60232805 251.10833616 160.55662098 259.79565319 160.50165538 268.48293711 C160.47893229 272.07615875 160.45768652 275.66937133 160.44062996 279.26262474 C160.4220655 283.15214505 160.39579308 287.04159054 160.36862183 290.93106079 C160.36423312 292.07452331 160.35984442 293.21798583 160.35532272 294.39609873 C160.34248581 295.95228594 160.34248581 295.95228594 160.32938957 297.53991127 C160.32133696 298.88746024 160.32133696 298.88746024 160.31312168 300.26223242 C160.17675781 302.53344727 160.17675781 302.53344727 159.17675781 305.53344727 C157.19675781 305.53344727 155.21675781 305.53344727 153.17675781 305.53344727 C153.83675781 304.54344727 154.49675781 303.55344727 155.17675781 302.53344727 C155.4748873 300.17204043 155.4748873 300.17204043 155.42285347 297.49470997 C155.42683557 296.44720155 155.43081766 295.39969312 155.43492043 294.32044202 C155.42909475 293.165787 155.42326906 292.01113199 155.41726685 290.82148743 C155.4189757 289.597942 155.42068455 288.37439657 155.42244518 287.113774 C155.42517587 283.71139609 155.4189026 280.30924681 155.40888906 276.90689647 C155.40027001 273.24024826 155.40317362 269.57360739 155.4046936 265.9069519 C155.40574344 259.55217622 155.39945659 253.19744153 155.38821793 246.84267616 C155.37197918 237.65470393 155.36675659 228.46675156 155.36424194 219.27876654 C155.35986228 204.37268207 155.34654584 189.46661947 155.32763672 174.56054688 C155.30928493 160.07877716 155.29512499 145.59701337 155.28662109 131.11523438 C155.28583292 129.77674911 155.28583292 129.77674911 155.28502883 128.41122375 C155.2824188 123.93479838 155.27989137 119.45837298 155.27740502 114.98194754 C155.25666409 77.83243201 155.22143119 40.68294134 155.17675781 3.53344727 C133.45266542 3.57073673 111.7287396 3.63077686 90.00478554 3.71735001 C79.91627385 3.75703304 69.82783896 3.78947978 59.73925781 3.80444336 C50.93839013 3.81751583 42.13769218 3.84462188 33.33692014 3.88806033 C28.68390029 3.91055019 24.03108881 3.92636552 19.3780098 3.92533112 C14.98332746 3.92457704 10.58910351 3.9428224 6.19454002 3.9746151 C4.59601501 3.98301729 2.99743798 3.98493138 1.39890099 3.97924995 C-17.33203217 3.9216318 -36.00240946 7.74942483 -52.35058594 17.15844727 C-54.44912542 18.32540761 -56.46067634 19.24538228 -58.69824219 20.09594727 C-62.22823441 21.71974369 -64.20552256 23.69758433 -66.82324219 26.53344727 C-67.81324219 27.19344727 -68.80324219 27.85344727 -69.82324219 28.53344727 C-70.15324219 29.52344727 -70.48324219 30.51344727 -70.82324219 31.53344727 C-71.48324219 31.53344727 -72.14324219 31.53344727 -72.82324219 31.53344727 C-73.15324219 32.85344727 -73.48324219 34.17344727 -73.82324219 35.53344727 C-74.48324219 35.53344727 -75.14324219 35.53344727 -75.82324219 35.53344727 C-75.92636719 36.44094727 -76.02949219 37.34844727 -76.13574219 38.28344727 C-76.82974032 41.5641657 -77.52409887 43.14233821 -79.82324219 45.53344727 C-80.48324219 45.53344727 -81.14324219 45.53344727 -81.82324219 45.53344727 C-82.48324219 49.49344727 -83.14324219 53.45344727 -83.82324219 57.53344727 C-84.48324219 57.53344727 -85.14324219 57.53344727 -85.82324219 57.53344727 C-85.88329563 58.28047818 -85.94334908 59.0275091 -86.00522232 59.79717731 C-86.40594976 64.70455771 -86.81870353 69.60604803 -87.34906006 74.50126648 C-89.52633995 95.84958026 -89.11712791 117.30423476 -89.0918932 138.73589158 C-89.08676966 144.45810011 -89.09154071 150.18030276 -89.09466553 155.9025116 C-89.09828071 165.48156915 -89.09356445 175.06059562 -89.08398438 184.63964844 C-89.07303902 195.7117292 -89.076679 206.78373663 -89.08763719 217.85581571 C-89.09670242 227.39856018 -89.09800105 236.94128257 -89.09275985 246.48402995 C-89.08964432 252.16906642 -89.08922073 257.85406831 -89.09583282 263.53910255 C-89.10159675 268.86385437 -89.09762702 274.18851078 -89.08604431 279.51325226 C-89.08339542 281.46762369 -89.0841667 283.42200312 -89.08856964 285.37637138 C-89.09401579 288.03840249 -89.08720308 290.70012549 -89.07720947 293.36213684 C-89.08167092 294.13885878 -89.08613236 294.91558072 -89.090729 295.71583968 C-89.06327638 299.47204249 -88.92890839 302.34691341 -86.82324219 305.53344727 C-88.48936124 305.57616827 -90.15707104 305.57408559 -91.82324219 305.53344727 C-93.59751807 303.75917138 -92.95103437 301.38815841 -92.96164769 299.02456427 C-92.95932479 297.82886431 -92.95932479 297.82886431 -92.95695496 296.60900879 C-92.95922051 295.76824751 -92.96148607 294.92748624 -92.96382028 294.06124735 C-92.97019153 291.2205868 -92.96932885 288.37997358 -92.96850586 285.53930664 C-92.97149592 283.51078224 -92.97489809 281.48225842 -92.97868347 279.45373535 C-92.98755589 273.91923159 -92.98986329 268.38474327 -92.99049926 262.85023308 C-92.99120939 259.38475763 -92.99334328 255.91928612 -92.99599648 252.45381165 C-93.00526944 240.33907828 -93.00933004 228.22435594 -93.00854492 216.10961914 C-93.00794766 204.86464239 -93.01842491 193.61971417 -93.03428859 182.37474966 C-93.04744811 172.69713414 -93.05272513 163.01953427 -93.05208951 153.34190989 C-93.05183644 147.57368172 -93.05457937 141.80549639 -93.06526756 136.03727722 C-93.21556052 48.82352787 -93.21556052 48.82352787 -70.51464844 24.01000977 C-51.85201494 6.0522048 -25.13458044 -0.11166771 0 0 Z " fill="#F8F8F8" transform="translate(92.8232421875,-0.533447265625)"/>
<path d="M0 0 C12.74306797 -0.02313183 25.48613097 -0.0409194 38.22921562 -0.05181217 C44.14581924 -0.05703915 50.06240853 -0.06413347 55.97900391 -0.07543945 C61.68480699 -0.08627487 67.39059627 -0.09227823 73.09640884 -0.09487724 C75.27738792 -0.09673031 77.45836622 -0.10034866 79.63933945 -0.10573006 C82.68519497 -0.11294914 85.73099282 -0.11399057 88.77685547 -0.11352539 C89.68603729 -0.11712067 90.59521912 -0.12071594 91.5319519 -0.12442017 C97.77189568 -0.11405216 97.77189568 -0.11405216 100 1 C100 85.48 100 169.96 100 257 C98.35 257 96.7 257 95 257 C94 256 94 256 93.8758015 254.27279419 C93.87637108 253.13420278 93.87637108 253.13420278 93.87695217 251.97260952 C93.87496112 251.09976958 93.87297007 250.22692963 93.87091869 249.32764 C93.87383153 248.35781576 93.87674437 247.38799153 93.87974548 246.38877869 C93.87846385 244.85616491 93.87846385 244.85616491 93.87715632 243.29258925 C93.87549844 239.84079407 93.88102789 236.38904662 93.88647461 232.93725586 C93.88675644 230.4740855 93.88659883 228.01091506 93.8860321 225.54774475 C93.88580378 220.23025324 93.88865519 214.91277682 93.89426994 209.59528923 C93.90238275 201.90701206 93.90499994 194.21874082 93.90625793 186.53045983 C93.9084488 174.05798223 93.91510982 161.58551116 93.92456055 149.11303711 C93.93373377 136.99422234 93.94081504 124.87540934 93.94506836 112.7565918 C93.94533108 112.01010563 93.94559381 111.26361945 93.94586449 110.49451249 C93.94716949 106.74976532 93.94843321 103.00501814 93.94967639 99.26027095 C93.96005008 68.17350922 93.97774345 37.0867556 94 6 C82.37688083 5.95345137 70.7537842 5.91801709 59.13059044 5.89637566 C53.73220884 5.88598356 48.3338915 5.87190888 42.93554688 5.84912109 C37.71597292 5.82722838 32.49646038 5.81539707 27.27684402 5.81024551 C25.29556946 5.80657903 23.31429786 5.79942023 21.33304977 5.78853989 C-6.11166423 5.34419219 -6.11166423 5.34419219 -29.7734375 17.64453125 C-42.77269067 31.11000236 -40.15190798 51.21540973 -40.18945312 68.55371094 C-40.19740979 70.60324264 -40.20579883 72.65277271 -40.21458435 74.70230103 C-40.23253603 79.08975491 -40.24758771 83.47720544 -40.26036072 87.86467743 C-40.28068262 94.79703603 -40.30831507 101.72935394 -40.33703613 108.66168213 C-40.40202174 124.61061953 -40.45776033 140.55958659 -40.51302338 156.50856018 C-40.56385049 171.16431488 -40.61663148 185.82005448 -40.67754889 200.47577119 C-40.70594163 207.37404015 -40.72951912 214.27230402 -40.74947357 221.17060232 C-40.76281392 225.44481809 -40.78022658 229.71901003 -40.79878426 233.99320602 C-40.80656966 235.98268663 -40.81262628 237.97217481 -40.81687737 239.96166611 C-40.82288193 242.66473167 -40.83490844 245.36770338 -40.84851074 248.07073975 C-40.84895472 249.26704502 -40.84895472 249.26704502 -40.84940767 250.48751807 C-40.88590489 255.88590489 -40.88590489 255.88590489 -42 257 C-43.66617115 257.04063832 -45.33388095 257.042721 -47 257 C-46.34 256.01 -45.68 255.02 -45 254 C-44.80082562 251.28848932 -44.71913101 248.67894705 -44.72825623 245.96672058 C-44.72316939 245.13846797 -44.71808255 244.31021536 -44.71284157 243.45686418 C-44.69813406 240.67065898 -44.69764622 237.88463002 -44.69702148 235.09838867 C-44.68936228 233.10410721 -44.68081629 231.10982898 -44.67144775 229.11555481 C-44.65313627 224.81199472 -44.64111795 220.50847837 -44.63390923 216.20488548 C-44.62241894 209.38095267 -44.59695244 202.5571156 -44.56959534 195.73323059 C-44.52788209 184.91518584 -44.495513 174.09713639 -44.46712118 163.27904922 C-44.41634254 143.97557122 -44.35347501 124.67213593 -44.28178078 105.36872464 C-44.25707873 98.60675975 -44.2375466 91.84480643 -44.22239864 85.08281362 C-44.21206558 80.83926039 -44.19791823 76.59572526 -44.18292236 72.3521862 C-44.17685643 70.4086221 -44.17234808 68.46505228 -44.16966438 66.52148056 C-44.16197181 61.24296705 -44.12619748 55.96623938 -44.04125857 50.68837142 C-44.01252416 48.8160628 -43.99080957 46.94363882 -43.97451901 45.07118058 C-43.94227681 42.1013771 -43.87586241 39.13401452 -43.801651 36.16499329 C-43.79659623 35.26502945 -43.79154145 34.36506562 -43.7863335 33.43783015 C-43.47619085 24.01415968 -38.73856184 18.11321314 -32.10546875 11.75390625 C-28.9792387 9.14968122 -25.75885883 7.50646872 -22 6 C-21.31679687 5.71382812 -20.63359375 5.42765625 -19.9296875 5.1328125 C-13.2436822 2.46349479 -7.15165403 1.87669562 0 2 C0 1.34 0 0.68 0 0 Z " fill="#FAFAFA" transform="translate(98,48)"/>
<path d="M0 0 C1.485 0.495 1.485 0.495 3 1 C2.443125 1.38929687 1.88625 1.77859375 1.3125 2.1796875 C-12.71876167 12.46611919 -19.5277224 26.19417643 -23 43 C-23.19335938 43.85335937 -23.38671875 44.70671875 -23.5859375 45.5859375 C-26.43083338 58.6559664 -26.16740541 71.86529398 -26.20532227 85.16870117 C-26.21491375 87.30822941 -26.22492456 89.4477558 -26.23532104 91.58728027 C-26.26223857 97.36949046 -26.28331893 103.15170869 -26.30332303 108.93394637 C-26.32526418 114.98644061 -26.35261293 121.03891041 -26.37937927 127.09138489 C-26.42919663 138.54098737 -26.4741759 149.99060351 -26.51740164 161.44023257 C-26.56686793 174.48015901 -26.62175109 187.52006091 -26.67708123 200.55996358 C-26.79073297 227.37328724 -26.89689334 254.18663358 -27 281 C-12.48 281 2.04 281 17 281 C16.99476318 277.57286621 16.98952637 274.14573242 16.98413086 270.61474609 C16.81924851 155.34327386 16.81924851 155.34327386 17.34743118 105.1129837 C17.37497334 102.37764729 17.39878525 99.64230099 17.42160034 96.90692139 C17.45754001 92.67571818 17.50343004 88.44474818 17.55800056 84.21374512 C17.57629557 82.6975244 17.59153231 81.18126297 17.60336113 79.66497803 C17.6201206 77.6247006 17.65028493 75.58454635 17.68115234 73.54443359 C17.69447601 72.41605072 17.70779968 71.28766785 17.7215271 70.12509155 C18.01596263 66.82086339 18.82969204 64.09389121 20 61 C20.33 61 20.66 61 21 61 C20.93953933 90.02384046 20.86209196 119.04759225 20.76428509 148.07133198 C20.75531345 150.75124912 20.74640583 153.43116646 20.73754883 156.11108398 C20.73534514 156.77720415 20.73314146 157.44332431 20.730871 158.12962993 C20.69547298 168.92345699 20.67062301 179.71728397 20.64965298 190.5111476 C20.62791083 201.58193813 20.59465198 212.65265766 20.55129844 223.72338551 C20.52730667 229.94364286 20.50861698 236.16381643 20.50238609 242.38411903 C20.49636211 248.23389562 20.4764601 254.0834577 20.44572449 259.93315506 C20.43690099 262.08464382 20.43323052 264.23616057 20.43499184 266.3876667 C20.43663303 269.31646035 20.42004441 272.244591 20.39872742 275.17329407 C20.40357499 276.03223701 20.40842257 276.89117996 20.41341704 277.77615148 C20.34332759 283.57784402 20.34332759 283.57784402 18.60401183 285.71650857 C16.50207582 287.39842687 15.2498413 287.38562015 12.57617188 287.40405273 C11.23963562 287.42307899 11.23963562 287.42307899 9.87609863 287.44248962 C8.91667358 287.43955399 7.95724854 287.43661835 6.96875 287.43359375 C5.98128784 287.4388356 4.99382568 287.44407745 3.97644043 287.44947815 C1.8884373 287.45590236 -0.19960199 287.45455621 -2.28759766 287.44604492 C-5.48795762 287.43753203 -8.6865351 287.46629609 -11.88671875 287.49804688 C-13.91406196 287.49965883 -15.94140835 287.49908146 -17.96875 287.49609375 C-18.92817505 287.50732773 -19.8876001 287.51856171 -20.87609863 287.53013611 C-21.7671228 287.52075516 -22.65814697 287.51137421 -23.57617188 287.50170898 C-24.35988159 287.50154282 -25.14359131 287.50137665 -25.9510498 287.50120544 C-28 287 -28 287 -29.60467052 285.47938156 C-31.56782744 281.99101904 -31.41121687 278.7253229 -31.3742218 274.82868958 C-31.37819621 273.99761568 -31.38217061 273.16654179 -31.38626546 272.31028384 C-31.39590321 269.52024073 -31.38406048 266.73070287 -31.37231445 263.94067383 C-31.37474232 261.94126191 -31.37846159 259.9418512 -31.38337708 257.94244385 C-31.39280312 252.50102853 -31.38333935 247.05979263 -31.37004495 241.61839128 C-31.35871878 235.90588753 -31.36283971 230.19339249 -31.36479187 224.48088074 C-31.36567598 214.86442142 -31.35458258 205.24803242 -31.33618164 195.6315918 C-31.31513851 184.57229155 -31.31147646 173.51309523 -31.3177436 162.45377904 C-31.32348194 151.7751231 -31.31773132 141.09650316 -31.30657005 130.4178524 C-31.30196982 125.89741018 -31.30103027 121.37699031 -31.3031559 116.8565464 C-31.31782609 63.52118574 -31.31782609 63.52118574 -27 39 C-26.34 39 -25.68 39 -25 39 C-24.93941406 38.38511719 -24.87882812 37.77023438 -24.81640625 37.13671875 C-24.73261719 36.32847656 -24.64882813 35.52023438 -24.5625 34.6875 C-24.48128906 33.88699219 -24.40007813 33.08648437 -24.31640625 32.26171875 C-23.8759907 29.11356314 -23.41422102 27.38749709 -21.0625 25.1875 C-18.63352282 22.61131208 -18.03953101 20.34134968 -17 17 C-16.34 16.67 -15.68 16.34 -15 16 C-14.67 15.01 -14.34 14.02 -14 13 C-13.34 13 -12.68 13 -12 13 C-11.91492188 12.41476563 -11.82984375 11.82953125 -11.7421875 11.2265625 C-10.78972945 8.36918834 -9.42683524 7.28898022 -7.125 5.375 C-6.42632813 4.78460937 -5.72765625 4.19421875 -5.0078125 3.5859375 C-3 2 -3 2 0 0 Z " fill="#E0E0E0" transform="translate(34,18)"/>
<path d="M0 0 C12.74306797 -0.02313183 25.48613097 -0.0409194 38.22921562 -0.05181217 C44.14581924 -0.05703915 50.06240853 -0.06413347 55.97900391 -0.07543945 C61.68480699 -0.08627487 67.39059627 -0.09227823 73.09640884 -0.09487724 C75.27738792 -0.09673031 77.45836622 -0.10034866 79.63933945 -0.10573006 C82.68519497 -0.11294914 85.73099282 -0.11399057 88.77685547 -0.11352539 C89.68603729 -0.11712067 90.59521912 -0.12071594 91.5319519 -0.12442017 C97.77189568 -0.11405216 97.77189568 -0.11405216 100 1 C100.03173365 18.02082422 100.05135578 35.04164992 100.0625 52.0625 C100.06335602 53.36033039 100.06421204 54.65816078 100.06509399 55.99531937 C100.09195972 102.31124395 99.86666725 148.62309897 99.5 194.9375 C99.49402628 195.69346797 99.48805257 196.44943593 99.48189783 197.22831202 C99.32956204 216.48561262 99.16934471 235.7428409 99 255 C97 253 97 253 96.75160301 251.14859569 C96.75236245 250.38991447 96.75312189 249.63123325 96.75390434 248.84956169 C96.74992225 247.9747307 96.74594015 247.09989971 96.74183738 246.19855869 C96.75057591 244.7481916 96.75057591 244.7481916 96.75949097 243.26852417 C96.75778212 242.24592723 96.75607327 241.22333029 96.75431263 240.16974556 C96.75100141 236.72100402 96.76204827 233.27245428 96.77294922 229.82373047 C96.77351298 227.36041264 96.77319746 224.89709448 96.77206421 222.43377686 C96.77160782 217.11901224 96.77730431 211.80430806 96.78853989 206.48955917 C96.80477421 198.80527588 96.81000077 191.12101635 96.81251587 183.43671776 C96.81689623 170.97033095 96.83021456 158.50397027 96.84912109 146.03759766 C96.86747108 133.92561982 96.88163189 121.81364908 96.89013672 109.70166016 C96.89066217 108.95543671 96.89118761 108.20921326 96.89172898 107.44037698 C96.894339 103.69690048 96.89686643 99.95342393 96.89935279 96.20994735 C96.9200959 65.13994589 96.95547906 34.06997691 97 3 C84.98572883 2.9534621 72.97147944 2.91802245 60.95713615 2.89637566 C55.37715321 2.88598127 49.79723237 2.87190225 44.21728516 2.84912109 C38.82264732 2.82723674 33.42806888 2.81539878 28.03339005 2.81024551 C25.98512972 2.80657755 23.93687228 2.79941577 21.88863754 2.78853989 C10.69754785 2.73153187 0.04305081 3.03909926 -11 5 C-13.33235766 5.34009306 -15.66548013 5.67508071 -18 6 C-12.72538629 1.33399557 -6.66226374 1.88513338 0 2 C0 1.34 0 0.68 0 0 Z " fill="#E4E4E4" transform="translate(98,48)"/>
<path d="M0 0 C0.33 0 0.66 0 1 0 C0.51278805 6.05168523 -0.15004726 12.03852475 -1.01913452 18.04772949 C-2.36430359 28.25844942 -2.30848825 38.45380506 -2.31884766 48.73632812 C-2.3281661 50.87659577 -2.33833756 53.01685984 -2.34928894 55.15711975 C-2.37638708 60.91837769 -2.39167791 66.67961146 -2.40471697 72.44091606 C-2.42043665 78.4800478 -2.44719831 84.51913082 -2.4727478 90.55822754 C-2.51938006 101.97224249 -2.55619907 113.38626677 -2.58942068 124.80032778 C-2.62775248 137.80410928 -2.67713339 150.80784165 -2.72740483 163.81158161 C-2.83049318 190.54102251 -2.91836999 217.27048436 -3 244 C11.52 244 26.04 244 41 244 C38 248 38 248 36.09617615 248.49447632 C35.3805098 248.49162628 34.66484344 248.48877625 33.92749023 248.48583984 C32.70623695 248.49506973 32.70623695 248.49506973 31.46031189 248.50448608 C30.14771141 248.48292953 30.14771141 248.48292953 28.80859375 248.4609375 C27.9075441 248.46002106 27.00649445 248.45910461 26.07814026 248.4581604 C24.17419158 248.45211988 22.27025261 248.43636034 20.36645508 248.41162109 C17.44512102 248.37509529 14.52505422 248.37060178 11.60351562 248.37109375 C9.75519732 248.36126349 7.90688764 248.34960689 6.05859375 248.3359375 C5.18150253 248.33371185 4.30441132 248.33148621 3.40074158 248.32919312 C-2.76785729 248.23214271 -2.76785729 248.23214271 -5 246 C-5.19766535 243.33706477 -5.26924534 240.77803803 -5.25396729 238.1138916 C-5.25708727 237.28931568 -5.26020725 236.46473975 -5.26342177 235.61517668 C-5.27143706 232.83517655 -5.26506388 230.05539261 -5.25878906 227.27539062 C-5.26149786 225.28774894 -5.26505816 223.30010825 -5.26940918 221.31246948 C-5.27856288 215.89363479 -5.27497296 210.4748759 -5.26865101 205.05603981 C-5.26358953 199.36934834 -5.26828444 193.6826634 -5.27142334 187.99597168 C-5.27506966 178.41885213 -5.27025391 168.84176332 -5.26074219 159.26464844 C-5.24993083 148.25312881 -5.25332676 137.24168368 -5.264395 126.23016596 C-5.27353855 116.74868724 -5.27471674 107.26723068 -5.26951766 97.78574896 C-5.26642683 92.13655732 -5.26590636 86.48740036 -5.27259064 80.83821106 C-5.33852104 16.01556311 -5.33852104 16.01556311 0 0 Z " fill="#B6B7BC" transform="translate(10,55)"/>
<path d="M0 0 C2.03407653 0.00374331 4.06815489 0.00658402 6.10223389 0.00857544 C11.3824995 0.01610832 16.66265006 0.03566411 21.94287109 0.0579834 C28.31759261 0.08232359 34.6923532 0.09127221 41.06710815 0.10289001 C50.68544309 0.12209754 60.30352702 0.16049145 69.921875 0.1953125 C69.921875 19.6653125 69.921875 39.1353125 69.921875 59.1953125 C69.591875 59.1953125 69.261875 59.1953125 68.921875 59.1953125 C68.921875 40.7153125 68.921875 22.2353125 68.921875 3.1953125 C51.58776987 3.28645571 51.58776987 3.28645571 34.25390625 3.40429688 C27.17075651 3.45835546 20.08768141 3.50947402 13.00439453 3.54174805 C7.28541361 3.56800522 1.56668746 3.6085612 -4.15213394 3.65849876 C-6.31985396 3.67501743 -8.48761789 3.68662404 -10.65539169 3.69292641 C-40.65409581 3.74996859 -40.65409581 3.74996859 -66.515625 17.5703125 C-72.41853591 23.78640036 -74.0990514 31.08571323 -76.078125 39.1953125 C-76.408125 40.1853125 -76.738125 41.1753125 -77.078125 42.1953125 C-77.19824054 44.94782228 -77.26347233 47.67691917 -77.28344727 50.43041992 C-77.29334686 51.26966507 -77.30324646 52.10891022 -77.31344604 52.97358704 C-77.34504896 55.74928968 -77.36981374 58.52500945 -77.39453125 61.30078125 C-77.41510182 63.22463935 -77.43609832 65.14849293 -77.45750427 67.07234192 C-77.51271432 72.13740386 -77.56212834 77.20250652 -77.61035156 82.26763916 C-77.66057435 87.43562445 -77.71625636 92.60355058 -77.77148438 97.77148438 C-77.87905291 107.91270988 -77.98050082 118.05398674 -78.078125 128.1953125 C-78.408125 128.1953125 -78.738125 128.1953125 -79.078125 128.1953125 C-79.14789061 116.92882616 -79.20107052 105.66239192 -79.23356152 94.39573288 C-79.24916208 89.1631579 -79.27029703 83.93073162 -79.30444336 78.69824219 C-79.33723793 73.64076543 -79.35502011 68.58343097 -79.36275673 63.52585602 C-79.36826437 61.60431939 -79.37901863 59.68278981 -79.39531517 57.76131439 C-79.52707961 41.56920161 -78.63545152 26.53214836 -67.109375 14.078125 C-49.70485716 -2.05452423 -22.04264965 -0.12166683 0 0 Z " fill="#9F9FA0" transform="translate(130.078125,42.8046875)"/>
<path d="M0 0 C1.96736393 0.00442527 3.93473142 0.00747689 5.90209961 0.00915527 C13.09885036 0.02471688 20.29552489 0.06659948 27.4921875 0.10546875 C51.6853125 0.19828125 51.6853125 0.19828125 76.3671875 0.29296875 C76.3671875 40.55296875 76.3671875 80.81296875 76.3671875 122.29296875 C76.0371875 122.29296875 75.7071875 122.29296875 75.3671875 122.29296875 C75.3671875 83.02296875 75.3671875 43.75296875 75.3671875 3.29296875 C42.3671875 2.96296875 9.3671875 2.63296875 -24.6328125 2.29296875 C-24.6328125 2.95296875 -24.6328125 3.61296875 -24.6328125 4.29296875 C-25.50421875 4.37933594 -26.375625 4.46570312 -27.2734375 4.5546875 C-42.25918359 6.32248655 -53.25806035 11.365715 -63.6328125 22.29296875 C-63.6328125 18.02961277 -61.76664787 16.92611535 -58.8203125 13.91796875 C-43.2137291 -1.41023914 -20.48715918 -0.15616772 0 0 Z " fill="#C1C1C1" transform="translate(122.6328125,45.70703125)"/>
<path d="M0 0 C1.485 0.495 1.485 0.495 3 1 C2.443125 1.38929687 1.88625 1.77859375 1.3125 2.1796875 C-10.97114247 11.18492539 -17.39925558 22.63879779 -22 37 C-22.66 37 -23.32 37 -24 37 C-24.49240727 40.28981793 -24.96614687 43.58210511 -25.4375 46.875 C-25.57220703 47.77347656 -25.70691406 48.67195313 -25.84570312 49.59765625 C-28.10676414 65.59052687 -28.15595114 81.7415885 -28.20532227 97.86181641 C-28.21492929 99.88415209 -28.22494089 101.90648589 -28.23532104 103.92881775 C-28.26207077 109.35938457 -28.28323999 114.78995981 -28.30332303 120.22055483 C-28.32536997 125.91799691 -28.35266607 131.61541393 -28.37937927 137.31283569 C-28.42905568 148.07513491 -28.47408616 158.83744823 -28.51740164 169.59977472 C-28.56698979 181.8635788 -28.62182706 194.12735771 -28.67708123 206.39113736 C-28.79051608 231.59406803 -28.89743713 256.7970229 -29 282 C-29.33 282 -29.66 282 -30 282 C-30.17804295 255.57277719 -30.34363674 229.14550105 -30.49477577 202.71811008 C-30.56525061 190.44492305 -30.63966071 178.17178437 -30.72363281 165.89868164 C-30.79688979 155.19016051 -30.86245985 144.48162327 -30.91914403 133.77300113 C-30.94936276 128.11315121 -30.98319601 122.45337946 -31.02626419 116.79361153 C-31.42096245 64.14994717 -31.42096245 64.14994717 -27 39 C-26.34 39 -25.68 39 -25 39 C-24.93941406 38.38511719 -24.87882812 37.77023438 -24.81640625 37.13671875 C-24.73261719 36.32847656 -24.64882813 35.52023438 -24.5625 34.6875 C-24.48128906 33.88699219 -24.40007813 33.08648437 -24.31640625 32.26171875 C-23.8759907 29.11356314 -23.41422102 27.38749709 -21.0625 25.1875 C-18.63352282 22.61131208 -18.03953101 20.34134968 -17 17 C-16.34 16.67 -15.68 16.34 -15 16 C-14.67 15.01 -14.34 14.02 -14 13 C-13.34 13 -12.68 13 -12 13 C-11.91492188 12.41476563 -11.82984375 11.82953125 -11.7421875 11.2265625 C-10.78972945 8.36918834 -9.42683524 7.28898022 -7.125 5.375 C-6.42632813 4.78460937 -5.72765625 4.19421875 -5.0078125 3.5859375 C-3 2 -3 2 0 0 Z " fill="#E0E0E0" transform="translate(34,18)"/>
<path d="M0 0 C0.89805862 -0.00014603 1.79611725 -0.00029205 2.72138977 -0.0004425 C5.68106527 0.00025252 8.64067733 0.00802574 11.6003418 0.01586914 C13.65585801 0.01773478 15.71137466 0.01915799 17.76689148 0.02015686 C23.17063632 0.02397057 28.57435418 0.03379109 33.97808838 0.04486084 C40.46509494 0.05690053 46.95211052 0.06148266 53.43912506 0.06731415 C63.28845564 0.07700344 73.13772705 0.09616804 82.98706055 0.11352539 C82.98706055 19.58352539 82.98706055 39.05352539 82.98706055 59.11352539 C82.65706055 59.11352539 82.32706055 59.11352539 81.98706055 59.11352539 C81.98706055 40.63352539 81.98706055 22.15352539 81.98706055 3.11352539 C50.30706055 2.78352539 18.62706055 2.45352539 -14.01293945 2.11352539 C-14.01293945 1.78352539 -14.01293945 1.45352539 -14.01293945 1.11352539 C-9.32860494 -0.07867821 -4.7973015 -0.02047702 0 0 Z " fill="#777E8F" transform="translate(117.012939453125,42.886474609375)"/>
<path d="M0 0 C14.52 0 29.04 0 44 0 C41 4 41 4 39.0827179 4.48101807 C38.00016975 4.4676944 38.00016975 4.4676944 36.89575195 4.45410156 C36.07512772 4.45379944 35.25450348 4.45349731 34.40901184 4.45318604 C33.0870002 4.42221832 33.0870002 4.42221832 31.73828125 4.390625 C30.83248825 4.38496521 29.92669525 4.37930542 28.99345398 4.37347412 C26.09926589 4.35107616 23.2063141 4.30087392 20.3125 4.25 C18.35092933 4.2299394 16.38933927 4.21168786 14.42773438 4.1953125 C9.61801294 4.15120018 4.8092161 4.08214941 0 4 C0 2.68 0 1.36 0 0 Z " fill="#9A9CA0" transform="translate(7,299)"/>
<path d="M0 0 C0.99 0.33 1.98 0.66 3 1 C2.26394531 1.6084375 1.52789062 2.216875 0.76953125 2.84375 C-7.6109555 10.37179622 -10.44009426 17.16389416 -13 28 C-13.33 28.99 -13.66 29.98 -14 31 C-14.12011554 33.75250978 -14.18534733 36.48160667 -14.20532227 39.23510742 C-14.21522186 40.07435257 -14.22512146 40.91359772 -14.23532104 41.77827454 C-14.26692396 44.55397718 -14.29168874 47.32969695 -14.31640625 50.10546875 C-14.33697682 52.02932685 -14.35797332 53.95318043 -14.37937927 55.87702942 C-14.43458932 60.94209136 -14.48400334 66.00719402 -14.53222656 71.07232666 C-14.58244935 76.24031195 -14.63813136 81.40823808 -14.69335938 86.57617188 C-14.80092791 96.71739738 -14.90237582 106.85867424 -15 117 C-15.33 117 -15.66 117 -16 117 C-16.06976561 105.73351366 -16.12294552 94.46707942 -16.15543652 83.20042038 C-16.17103708 77.9678454 -16.19217203 72.73541912 -16.22631836 67.50292969 C-16.25911293 62.44545293 -16.27689511 57.38811847 -16.28463173 52.33054352 C-16.29013937 50.40900689 -16.30089363 48.48747731 -16.31719017 46.56600189 C-16.45411133 29.74019634 -15.21855175 15.54515271 -3.5859375 2.56640625 C-2 1 -2 1 0 0 Z " fill="#ABAEB8" transform="translate(67,54)"/>
<path d="M0 0 C0 0.33 0 0.66 0 1 C-0.87140625 1.08636719 -1.7428125 1.17273437 -2.640625 1.26171875 C-17.62637109 3.0295178 -28.62524785 8.07274625 -39 19 C-39 15.34856345 -37.86909639 14.47943149 -35.3828125 11.97265625 C-34.88523437 11.48667969 -34.38765625 11.00070313 -33.875 10.5 C-33.400625 10.01402344 -32.92625 9.52804688 -32.4375 9.02734375 C-23.5926897 0.25424813 -11.8979917 -0.40332175 0 0 Z " fill="#CDCDCD" transform="translate(98,49)"/>
<path d="M0 0 C0.99 0.33 1.98 0.66 3 1 C2.443125 1.38929687 1.88625 1.77859375 1.3125 2.1796875 C-10.97114247 11.18492539 -17.39925558 22.63879779 -22 37 C-23.61099352 32.97251619 -22.391044 29.9644754 -21 26 C-20.02308143 24.31970006 -19.02611949 22.65071396 -18 21 C-17.814375 20.2575 -17.62875 19.515 -17.4375 18.75 C-17.293125 18.1725 -17.14875 17.595 -17 17 C-16.34 16.67 -15.68 16.34 -15 16 C-14.67 15.01 -14.34 14.02 -14 13 C-13.34 13 -12.68 13 -12 13 C-11.91492187 12.41476563 -11.82984375 11.82953125 -11.7421875 11.2265625 C-10.78972945 8.36918834 -9.42683524 7.28898022 -7.125 5.375 C-6.42632813 4.78460937 -5.72765625 4.19421875 -5.0078125 3.5859375 C-3 2 -3 2 0 0 Z " fill="#E1E1E4" transform="translate(34,18)"/>
<path d="M0 0 C-1.65 0.33 -3.3 0.66 -5 1 C-5 1.66 -5 2.32 -5 3 C-5.76183594 3.09796875 -6.52367188 3.1959375 -7.30859375 3.296875 C-13.44433207 4.18544634 -18.5809585 5.35494556 -24.0625 8.29296875 C-26.43232922 9.1577653 -27.65690862 8.821128 -30 8 C-21.98379924 3.38732582 -9.48486562 -3.16162187 0 0 Z " fill="#94959A" transform="translate(98,45)"/>
<path d="M0 0 C-0.74443359 0.63615234 -0.74443359 0.63615234 -1.50390625 1.28515625 C-11.62446283 10.00799846 -11.62446283 10.00799846 -19 21 C-19.81379941 18.68655766 -20.18025173 17.4688515 -19.28515625 15.140625 C-7.8101983 -2.60339943 -7.8101983 -2.60339943 0 0 Z " fill="#E9E9E9" transform="translate(75,57)"/>
<path d="M0 0 C0.99 0.495 0.99 0.495 2 1 C2 1.66 2 2.32 2 3 C7.92679536 2.90652102 13.85317951 2.80043942 19.77954102 2.68261719 C21.79607952 2.64430896 23.81268678 2.60945935 25.8293457 2.578125 C28.72632442 2.53251451 31.62282896 2.47451361 34.51953125 2.4140625 C35.42274612 2.40251129 36.325961 2.39096008 37.25654602 2.37905884 C38.09719101 2.35918915 38.937836 2.33931946 39.80395508 2.31884766 C40.54341873 2.30552399 41.28288239 2.29220032 42.04475403 2.2784729 C44.32104165 2.09785588 44.32104165 2.09785588 47 0 C46.67 1.32 46.34 2.64 46 4 C31.15 4 16.3 4 1 4 C0.67 2.68 0.34 1.36 0 0 Z " fill="#DEDEDE" transform="translate(5,301)"/>
<path d="M0 0 C0.99 0.33 1.98 0.66 3 1 C2.22914062 1.75925781 1.45828125 2.51851562 0.6640625 3.30078125 C-0.34909096 4.30455366 -1.36210448 5.30846732 -2.375 6.3125 C-2.88289063 6.81201172 -3.39078125 7.31152344 -3.9140625 7.82617188 C-6.22854133 10.12542387 -8.18347483 12.27521225 -10 15 C-10.66 14.67 -11.32 14.34 -12 14 C-4.44674786 2.59393625 -4.44674786 2.59393625 0 0 Z " fill="#999BA2" transform="translate(67,54)"/>
<path d="M0 0 C0.66 0.33 1.32 0.66 2 1 C1.21232408 2.93912584 0.4197133 4.87624766 -0.375 6.8125 C-0.81585937 7.89144531 -1.25671875 8.97039063 -1.7109375 10.08203125 C-3 13 -3 13 -5 16 C-4.74213573 9.47603393 -4.17832479 5.12181749 0 0 Z " fill="#D2D2D5" transform="translate(16,39)"/>
<path d="M0 0 C0.99 0.33 1.98 0.66 3 1 C0.69 3.31 -1.62 5.62 -4 8 C-4 4.09161134 -2.49432124 2.88405893 0 0 Z " fill="#AAAAAA" transform="translate(67,54)"/>
</svg>
